<?xml version="1.0" encoding="UTF-8"?>
<!DOCTYPE svg  PUBLIC '-//W3C//DTD SVG 20010904//EN'  'http://www.w3.org/TR/2001/REC-SVG-20010904/DTD/svg10.dtd'>
<svg width="1500pt" height="1500pt" version="1.0" viewBox="0 0 1500 1500" xmlns="http://www.w3.org/2000/svg">
<g transform="translate(0 1500) scale(.1 -.1)">
<path d="m0 7500v-7500h7500 7500v7500 7500h-7500-7500v-7500zm7740 1044c0-7-352-457-388-496l-26-28h-2240c-1543 0-2253-3-2279-11-21-5-52-23-70-39-29-25-32-34-32-83 0-60 23-97 75-120 18-8 257-14 805-18 836-6 848-7 1030-61 194-57 317-162 373-321 22-61 26-89 26-182 0-130-18-207-70-306-69-131-218-238-408-293-188-55-220-56-1452-56-623 0-1134 2-1134 5s99 120 221 260l220 254 1834 6 41 22c97 52 98 179 1 234l-42 24-790 6c-752 5-794 7-880 26-344 79-514 246-532 523-9 144 26 265 110 375 79 104 204 180 382 230 196 55 100 53 2763 54 1354 1 2462-2 2462-5zm2684-6c-4-6-95-124-202-262l-194-251-587-5c-652-6-635-5-781-78-95-47-177-127-218-213-123-254-3-536 273-638 131-49 163-51 860-51h654l11-42c6-24 19-66 29-94l19-50-260-334h-591c-341 0-622 5-662 10-426 61-762 281-923 604-111 224-127 496-42 740 34 99 109 215 200 309 192 201 444 313 805 360 17 2 387 5 823 6 605 1 791-2 786-11zm1754-13c518-82 798-339 868-799 21-137 14-415-14-536-42-179-103-299-211-413-154-162-355-256-653-304-150-25-571-25-727 0-314 50-552 168-692 344-62 78-126 200-153 293-47 157-61 453-31 639 77 473 389 726 975 790 126 14 515 6 638-14zm-4768-884v-139l-71-91-71-90-297-3c-163-2-593-1-956 2l-660 5-7 80c-7 86-34 177-69 228-12 18-47 58-78 90l-55 57h1132 1132v-139zm89-653c17-35 42-84 57-109l27-46-118-151-118-152h-1105-1104l58 63c33 34 71 86 87 114 36 67 67 191 67 268 0 34 3 65 7 68 3 4 480 7 1060 7h1053l29-62z"/>
<path d="m11537 8009c-250-24-377-105-429-272-20-63-23-92-22-242 0-144 4-180 21-232 74-223 276-295 783-280 299 9 420 40 519 132 82 76 121 199 121 383 0 287-89 430-306 486-129 33-471 46-687 25z"/>
</g>
</svg>
